#!OML:ASF E:\CV Data\Top Level 1\Subject 1\Session 1\player.ASF
:FULLY-SPECIFIED
:DEGREES
780
root 5.14018 21.4299 32.0276 9.81975 -8.61709 -7.0426
lowerback 9.34413 0.924771 5.83956
upperback -0.676412 2.04176 2.66133
thorax -5.86142 0.860688 -0.78128
lowerneck -11.0668 -5.84823 -15.0933
upperneck 14.5176 -7.27992 11.8349
head 7.25929 -3.40166 5.65252
rclavicle -1.89342e-014 -1.39149e-015
rhumerus -49.7029 31.4515 -78.7635
rradius 63.7752
rwrist -7.5486
rhand -10.0831 -1.45567
rfingers 7.12502
rthumb 15.9036 -30.8226
lclavicle -1.89342e-014 -1.39149e-015
lhumerus -48.161 -13.0732 82.7275
lradius 67.7889
lwrist 6.84831
lhand -18.9336 13.0876
lfingers 7.12502
lthumb 7.36928 42.9393
rfemur -21.1967 -3.59418 22.4086
rtibia 77.195
rfoot 23.5813 -11.927
rtoes 21.2395
lfemur -14.2763 14.2183 -15.0715
ltibia 60.9373
lfoot 22.5198 -14.8675
ltoes 6.7745
781
root 5.13515 21.5273 32.2974 9.53778 -8.55127 -7.07281
lowerback 10.0446 0.916094 5.81885
upperback -0.360505 2.06209 2.59359
thorax -5.92021 0.872515 -0.856987
lowerneck -10.7537 -5.85116 -15.3222
upperneck 14.6383 -7.2979 11.8449
head 7.25495 -3.43276 5.69919
rclavicle -3.08116e-015 -3.29983e-014
rhumerus -48.6115 30.1249 -79.5382
rradius 60.0223
rwrist -9.48692
rhand -10.9153 -1.66705
rfingers 7.12502
rthumb 15.1021 -31.0961
lclavicle -3.08116e-015 -3.29983e-014
lhumerus -47.1093 -12.3107 83.1012
lradius 64.6709
lwrist 6.4932
lhand -20.0051 12.9543
lfingers 7.12502
lthumb 6.3349 42.8395
rfemur -22.7478 -4.02638 22.7692
rtibia 77.6009
rfoot 22.4614 -11.422
rtoes 20.6403
lfemur -15.8461 14.2604 -14.9988
ltibia 61.2861
lfoot 20.3598 -14.6365
ltoes 5.15305
782
root 5.12991 21.6088 32.5655 9.19072 -8.53286 -7.07057
lowerback 10.84 0.915182 5.75351
upperback -0.0161624 2.09146 2.51136
thorax -6.00133 0.889557 -0.926639
lowerneck -10.4721 -5.85319 -15.5237
upperneck 14.7472 -7.31364 11.8461
head 7.25066 -3.46094 5.73793
rclavicle 3.72721e-014 3.24019e-014
rhumerus -47.6592 28.8903 -80.3496
rradius 56.4654
rwrist -11.2143
rhand -11.6961 -1.78949
rfingers 7.12502
rthumb 14.3499 -31.2735
lclavicle 3.72721e-014 3.24019e-014
lhumerus -46.1299 -11.4987 83.4091
lradius 61.6715
lwrist 5.83045
lhand -20.8803 12.7783
lfingers 7.12502
lthumb 5.48988 42.6872
rfemur -24.2256 -4.35111 23.0893
rtibia 77.8317
rfoot 21.3216 -10.9529
rtoes 20.0999
lfemur -17.2947 14.2634 -14.9464
ltibia 61.4264
lfoot 18.2338 -14.3738
ltoes 3.27229
783
root 5.12429 21.6751 32.8329 8.78516 -8.54664 -7.03845
lowerback 11.7199 0.921712 5.64546
upperback 0.351254 2.12806 2.41913
thorax -6.10423 0.910732 -0.986433
lowerneck -10.2188 -5.85582 -15.7056
upperneck 14.8406 -7.32973 11.8505
head 7.24581 -3.48701 5.77378
rclavicle -5.46658e-016 -8.15017e-015
rhumerus -46.8617 27.7434 -81.1845
rradius 53.0818
rwrist -12.3388
rhand -12.4174 -1.76727
rfingers 7.12502
rthumb 13.6548 -31.2994
lclavicle -5.46658e-016 -8.15017e-015
lhumerus -45.2171 -10.6042 83.6422
lradius 58.8061
lwrist 4.90812
lhand -21.484 12.6088
lfingers 7.12502
lthumb 4.90705 42.532
rfemur -25.6249 -4.58818 23.3716
rtibia 77.883
rfoot 20.1801 -10.5512
rtoes 19.6291
lfemur -18.6274 14.2229 -14.9047
ltibia 61.3698
lfoot 16.1747 -14.0574
ltoes 1.2364
784
root 5.1185 21.7265 33.1003 8.33641 -8.57791 -6.98783
lowerback 12.6616 0.933502 5.51151
upperback 0.737189 2.16852 2.32005
thorax -6.21996 0.93401 -1.04164
lowerneck -9.99712 -5.86048 -15.8675
upperneck 14.9153 -7.34952 11.8707
head 7.24092 -3.51141 5.81061
rclavicle 7.8023e-015 5.76476e-015
rhumerus -46.2227 26.6671 -82.0333
rradius 49.8561
rwrist -12.5825
rhand -13.0651 -1.59016
rfingers 7.12502
rthumb 13.0305 -31.1632
lclavicle 7.8023e-015 5.76476e-015
lhumerus -44.3755 -9.62369 83.8016
lradius 56.1003
lwrist 3.83719
lhand -21.8216 12.4728
lfingers 7.12502
lthumb 4.58108 42.4033
rfemur -26.9466 -4.75113 23.6247
rtibia 77.7469
rfoot 19.0495 -10.245
rtoes 19.2071
lfemur -19.8594 14.14 -14.8599
ltibia 61.1265
lfoot 14.2065 -13.6716
ltoes -0.639866
785
root 5.11243 21.7636 33.3685 7.86424 -8.61098 -6.93105
lowerback 13.6389 0.947858 5.36194
upperback 1.13522 2.20863 2.22111
thorax -6.3402 0.957201 -1.08949
lowerneck -9.81454 -5.86965 -16.0036
upperneck 14.9716 -7.37522 11.9025
head 7.2373 -3.53494 5.8455
rclavicle 8.4235e-015 9.93923e-015
rhumerus -45.7487 25.6679 -82.8955
rradius 46.7927
rwrist -11.8599
rhand -13.6808 -1.2709
rfingers 7.12502
rthumb 12.4369 -30.8809
lclavicle 8.4235e-015 9.93923e-015
lhumerus -43.6286 -8.57082 83.9008
lradius 53.607
lwrist 2.75511
lhand -21.9275 12.4039
lfingers 7.12502
lthumb 4.4788 42.3365
rfemur -28.1963 -4.8513 23.8643
rtibia 77.4136
rfoot 17.9438 -10.043
rtoes 18.7342
lfemur -21.0094 14.0124 -14.7984
ltibia 60.704
lfoot 12.3635 -13.2206
ltoes -2.33648
